<svg xmlns="http://www.w3.org/2000/svg" viewBox="0 0 100 120" fill="none" class="w-auto h-full shrink-0"><path fill="#9679A6" d="M69.832 24.624a10.325 10.325 0 0 1-10.31-10.315V0H13.455A13.454 13.454 0 0 0 0 13.454v81.107a13.455 13.455 0 0 0 13.454 13.434h55.303a13.453 13.453 0 0 0 13.455-13.434V24.624h-12.38Z" opacity="0.3"></path><path fill="#9679A6" d="M29.871 61.18v1.832h-2.894a3.438 3.438 0 0 1-3.582-3.56v-7.768a1.957 1.957 0 0 0-2.083-2.083H21v-2.478h.312a1.958 1.958 0 0 0 2.083-2.082v-7.372a3.436 3.436 0 0 1 3.582-3.666h2.894v1.875h-1.853a2.081 2.081 0 0 0-2.27 2.332v7.039a2.916 2.916 0 0 1-2.728 3.082 2.872 2.872 0 0 1 2.728 3.04v7.455a2.207 2.207 0 0 0 2.27 2.354h1.853Zm2.645-5.144a1.582 1.582 0 0 1 1.645-1.625 1.603 1.603 0 0 1 1.666 1.625 1.581 1.581 0 0 1-1.666 1.645 1.563 1.563 0 0 1-1.645-1.645Zm6.539 0A1.646 1.646 0 1 1 40.7 57.68a1.56 1.56 0 0 1-1.645-1.645Zm6.519-.001a1.666 1.666 0 1 1 1.666 1.645 1.582 1.582 0 0 1-1.666-1.645Zm5.976 6.977V61.18h1.832a2.207 2.207 0 0 0 2.291-2.354v-7.392a2.832 2.832 0 0 1 2.728-3.04 2.875 2.875 0 0 1-2.728-3.083V38.21a2.083 2.083 0 0 0-2.29-2.332H51.55v-1.875h2.874a3.438 3.438 0 0 1 3.581 3.666v7.372a1.936 1.936 0 0 0 2.083 2.082h.312v2.478h-.312a1.937 1.937 0 0 0-2.083 2.083v7.767a3.438 3.438 0 0 1-3.581 3.645l-2.874-.084Zm30.662-38.388h-12.38a10.324 10.324 0 0 1-10.31-10.315V0l22.69 24.624ZM91.966 85.3H29.449a8.03 8.03 0 0 0-8.03 8.03v18.64a8.03 8.03 0 0 0 8.03 8.029h62.517a8.03 8.03 0 0 0 8.03-8.029V93.33a8.03 8.03 0 0 0-8.03-8.03Z"></path><path fill="#fff" d="M39.62 95.199h3.04v10.142c0 .937-.211 1.752-.633 2.443a4.179 4.179 0 0 1-1.74 1.598c-.743.374-1.608.561-2.592.561-.876 0-1.672-.154-2.387-.461a3.815 3.815 0 0 1-1.69-1.421c-.417-.639-.623-1.442-.618-2.408h3.061c.01.384.088.713.234.988.152.27.358.478.618.625.266.142.578.213.938.213.379 0 .698-.081.959-.242.265-.166.466-.407.603-.724.138-.317.206-.708.206-1.172V95.199Zm13.472 4.183c-.056-.573-.3-1.018-.731-1.335-.431-.317-1.016-.476-1.754-.476-.502 0-.926.071-1.272.213-.345.137-.61.33-.795.575-.18.247-.27.526-.27.838-.01.26.045.488.163.682.123.194.291.362.505.505.213.137.459.258.738.362.28.099.578.184.895.255l1.307.313a9.196 9.196 0 0 1 1.747.568c.53.237.99.528 1.378.874.388.345.689.753.902 1.221.218.469.329 1.006.334 1.612-.005.891-.232 1.662-.682 2.316-.445.649-1.09 1.153-1.932 1.513-.838.355-1.849.532-3.033.532-1.174 0-2.197-.18-3.068-.539-.866-.36-1.543-.893-2.031-1.599-.483-.71-.736-1.588-.76-2.634h2.976c.033.487.173.894.419 1.221.25.322.585.566 1.001.732.422.161.898.241 1.428.241.52 0 .973-.076 1.356-.227.389-.152.69-.362.902-.632.214-.27.32-.58.32-.931 0-.326-.097-.601-.291-.823-.19-.223-.469-.412-.838-.569a8.568 8.568 0 0 0-1.343-.426l-1.583-.398c-1.227-.298-2.195-.764-2.905-1.399-.71-.634-1.063-1.489-1.058-2.564-.005-.88.23-1.65.703-2.308.478-.658 1.134-1.172 1.967-1.541.833-.37 1.78-.554 2.84-.554 1.08 0 2.023.185 2.828.554.81.37 1.439.883 1.889 1.541.45.658.682 1.42.696 2.287h-2.948Zm18.582 3.09c0 1.586-.3 2.935-.902 4.048-.597 1.113-1.411 1.962-2.443 2.55-1.028.582-2.183.873-3.466.873-1.293 0-2.453-.293-3.48-.88-1.028-.588-1.84-1.438-2.437-2.55-.596-1.113-.894-2.46-.894-4.041 0-1.587.298-2.936.895-4.049.596-1.112 1.408-1.96 2.435-2.542 1.028-.587 2.188-.881 3.48-.881 1.284 0 2.44.294 3.467.88 1.032.583 1.846 1.43 2.443 2.543.601 1.113.902 2.462.902 4.049Zm-3.118 0c0-1.028-.154-1.894-.462-2.6-.303-.705-.731-1.24-1.285-1.605-.554-.364-1.203-.547-1.946-.547-.744 0-1.392.183-1.946.547-.554.365-.985.9-1.293 1.605-.303.706-.455 1.572-.455 2.6 0 1.027.152 1.894.455 2.599.308.706.739 1.241 1.293 1.605.554.365 1.202.547 1.946.547.743 0 1.392-.182 1.946-.547.554-.364.982-.899 1.285-1.605.308-.705.462-1.572.462-2.599Zm17.562-7.273v14.545h-2.656l-6.328-9.155h-.107v9.155h-3.075V95.199h2.699l6.278 9.148h.128v-9.148h3.061Z"></path></svg>