<svg xmlns="http://www.w3.org/2000/svg" viewBox="0 0 100 120" fill="none" class="w-auto h-full shrink-0"><path fill="#FF3E4C" d="M69.835 24.62a10.32 10.32 0 0 1-10.31-10.31V0h-46.07A13.455 13.455 0 0 0 0 13.455v81.11A13.455 13.455 0 0 0 13.455 108H68.76a13.456 13.456 0 0 0 13.455-13.44V24.62h-12.38Z" opacity="0.3"></path><path fill="#FF3E4C" d="M82.215 24.62h-12.38a10.32 10.32 0 0 1-10.31-10.31V0l22.69 24.62ZM91.97 85.3H29.45a8.03 8.03 0 0 0-8.03 8.03v18.641a8.03 8.03 0 0 0 8.03 8.03h62.52a8.03 8.03 0 0 0 8.03-8.03v-18.64a8.03 8.03 0 0 0-8.03-8.03Z"></path><path fill="#fff" d="M29.28 95.453h3.793l4.006 9.772h.17l4.006-9.772h3.792v14.545h-2.983v-9.467h-.12l-3.765 9.396h-2.03l-3.765-9.432h-.12v9.503H29.28V95.453Zm27.285 0h3.076v9.446c0 1.06-.254 1.988-.76 2.784-.502.795-1.205 1.416-2.11 1.861-.904.44-1.958.66-3.16.66-1.207 0-2.263-.22-3.168-.66-.904-.445-1.607-1.066-2.11-1.861-.501-.796-.752-1.724-.752-2.784v-9.446h3.075v9.183c0 .554.121 1.046.363 1.477.246.431.591.77 1.037 1.016.445.246.963.369 1.555.369.597 0 1.115-.123 1.555-.369a2.59 2.59 0 0 0 1.03-1.016c.246-.431.37-.923.37-1.477v-9.183Zm13.496 4.183c-.056-.573-.3-1.018-.731-1.335-.43-.317-1.016-.476-1.754-.476-.502 0-.926.071-1.272.213-.345.137-.61.33-.795.575-.18.246-.27.526-.27.838-.01.26.045.488.163.682.123.194.292.362.505.504.213.138.459.258.738.363.28.099.578.184.895.255l1.307.313a9.196 9.196 0 0 1 1.747.568c.53.237.99.528 1.378.874.388.345.689.752.902 1.221.218.469.33 1.006.334 1.612-.005.891-.232 1.662-.682 2.316-.445.648-1.089 1.153-1.932 1.513-.838.355-1.849.532-3.032.532-1.175 0-2.197-.18-3.069-.54-.866-.359-1.543-.892-2.03-1.598-.484-.71-.737-1.588-.76-2.635h2.975c.033.488.173.895.419 1.222.251.322.585.566 1.002.732.42.161.897.241 1.427.241.52 0 .973-.076 1.356-.227.389-.152.69-.362.902-.632.214-.27.32-.58.32-.931a1.21 1.21 0 0 0-.291-.824c-.19-.222-.469-.412-.838-.568a8.568 8.568 0 0 0-1.343-.426l-1.583-.398c-1.227-.298-2.195-.764-2.905-1.399-.71-.634-1.063-1.489-1.058-2.564-.005-.88.23-1.65.703-2.308.478-.658 1.134-1.172 1.967-1.541.834-.37 1.78-.554 2.841-.554 1.08 0 2.022.185 2.827.554.81.37 1.44.883 1.889 1.541.45.658.682 1.42.696 2.287h-2.948Zm8.291-4.183v14.545h-3.076V95.453h3.076Zm15.364 5.092h-3.111a3.044 3.044 0 0 0-.348-1.072 2.727 2.727 0 0 0-.675-.81 2.97 2.97 0 0 0-.952-.511 3.642 3.642 0 0 0-1.157-.178c-.753 0-1.409.187-1.968.561-.558.37-.992.91-1.3 1.619-.307.706-.46 1.563-.46 2.571 0 1.037.153 1.909.46 2.614.313.706.749 1.238 1.308 1.598.558.36 1.204.54 1.938.54.412 0 .794-.055 1.144-.163.355-.109.67-.268.945-.476a2.74 2.74 0 0 0 .681-.774c.185-.303.313-.649.384-1.037l3.11.014a5.799 5.799 0 0 1-1.89 3.586 6.049 6.049 0 0 1-1.916 1.151c-.739.279-1.575.419-2.507.419-1.298 0-2.458-.293-3.48-.881-1.018-.587-1.823-1.437-2.415-2.549-.587-1.113-.88-2.46-.88-4.042 0-1.586.297-2.935.894-4.048s1.406-1.96 2.429-2.542c1.023-.588 2.173-.881 3.452-.881.843 0 1.624.118 2.344.355a5.943 5.943 0 0 1 1.924 1.037 5.335 5.335 0 0 1 1.364 1.655c.355.653.582 1.401.682 2.244Z"></path><path fill="#FF3E4C" d="M60.115 65.96H54.64V43.83a2.795 2.795 0 0 0-2.795-2.794h-14a2.796 2.796 0 0 0-2.795 2.795v22.13h-5.5v-24a6.411 6.411 0 0 1 6.415-6.41h17.75a6.41 6.41 0 0 1 6.41 6.41l-.01 24Z"></path><path fill="#FF3E4C" d="M53.625 72.449a6.49 6.49 0 1 0 0-12.98 6.49 6.49 0 0 0 0 12.98Zm-25.035 0a6.49 6.49 0 1 0 0-12.98 6.49 6.49 0 0 0 0 12.98Z"></path></svg>