<svg xmlns="http://www.w3.org/2000/svg" viewBox="0 0 100 120" fill="none" class="w-auto h-full shrink-0"><path fill="#0072FF" d="M69.832 24.624a10.325 10.325 0 0 1-10.315-10.31V0H13.454A13.455 13.455 0 0 0 0 13.454v81.107a13.455 13.455 0 0 0 13.454 13.455h55.298a13.455 13.455 0 0 0 13.455-13.455V24.624H69.832Z" opacity="0.3"></path><path fill="#0072FF" d="M82.207 24.624H69.832a10.325 10.325 0 0 1-10.314-10.31V0l22.689 24.624Zm-16.91 17.238H13.675a1.875 1.875 0 0 1-1.87-1.87 1.875 1.875 0 0 1 1.87-1.875h51.623a1.875 1.875 0 0 1 1.87 1.875 1.875 1.875 0 0 1-1.87 1.87Zm0 11.188H13.675a1.875 1.875 0 0 1-1.87-1.87 1.875 1.875 0 0 1 1.87-1.875h51.623a1.875 1.875 0 0 1 1.87 1.875 1.875 1.875 0 0 1-1.87 1.87Zm0 11.183H13.675a1.875 1.875 0 0 1-1.87-1.875 1.875 1.875 0 0 1 1.87-1.87h51.623a1.875 1.875 0 0 1 1.87 1.87 1.875 1.875 0 0 1-1.87 1.875Zm0 11.18H13.675a1.87 1.87 0 0 1-1.323-3.194 1.87 1.87 0 0 1 1.323-.551h51.623a1.875 1.875 0 0 1 1.322 3.197 1.87 1.87 0 0 1-1.323.548ZM91.966 85.3H29.45a8.03 8.03 0 0 0-8.03 8.03v18.64a8.03 8.03 0 0 0 8.03 8.029h62.517a8.03 8.03 0 0 0 8.03-8.029V93.33a8.03 8.03 0 0 0-8.03-8.03Z"></path><path fill="#fff" d="M42.779 106.684v3.635h-3.765v-3.635h3.765Zm12.695-11.399v2.895h-4.086v12.14h-3.654V98.18h-4.046v-2.895h11.785Zm10.654 15.035-3.17-4.68-2.725 4.68h-4.165l4.805-7.74-4.955-7.295h4.315l3.085 4.53 2.66-4.53h4.145l-4.74 7.57 5.06 7.465h-4.315Zm16.519-15.035v2.895h-4.08v12.14h-3.66V98.18h-4.04v-2.895h11.78Z"></path></svg>